<?xml version="1.0" encoding="utf-8"?>
<svg xmlns="http://www.w3.org/2000/svg" xmlns:xlink="http://www.w3.org/1999/xlink" xml:space="preserve" width="1063.75" height="1329.6875" viewBox="0 0 1063.75 1329.6875"><rect width="984.85520833333" height="984.85520833333" fill="#ffffff" x="44.322916666667" y="310.26041666667"/><g transform="scale(44.322916666667)" fill="#000000"><path d="M22.7,6L1.3,6C0.6,6,0,6.6,0,7.3l0,21.3C0,29.4,0.6,30,1.3,30l21.3,0c0.7,0,1.3-0.6,1.3-1.3l0-21.3 C24,6.6,23.4,6,22.7,6z M23,28c0,0.6-0.5,1-1,1L2,29c-0.6,0-1-0.5-1-1V8c0-0.6,0.5-1,1-1l20,0c0.6,0,1,0.5,1,1V28z"/><path d="M23,0H1C0.4,0,0,0.4,0,1v3c0,0.5,0.4,1,1,1h10l1,1l1-1h10c0.5,0,1-0.4,1-1V1C24,0.4,23.6,0,23,0z"/></g><g transform="translate(0,265.9375)" fill="#000000">
<g transform="translate(313.375,106.375) scale(3.9483333333333)"><rect width="6" height="6"/></g>
<g transform="translate(336.375,106.375) scale(3.9483333333333)"><rect width="6" height="6"/></g>
<g transform="translate(359.375,106.375) scale(3.9483333333333)"><rect width="6" height="6"/></g>
<g transform="translate(382.375,106.375) scale(3.9483333333333)"><rect width="6" height="6"/></g>
<g transform="translate(428.375,106.375) scale(3.9483333333333)"><rect width="6" height="6"/></g>
<g transform="translate(543.375,106.375) scale(3.9483333333333)"><rect width="6" height="6"/></g>
<g transform="translate(589.375,106.375) scale(3.9483333333333)"><rect width="6" height="6"/></g>
<g transform="translate(612.375,106.375) scale(3.9483333333333)"><rect width="6" height="6"/></g>
<g transform="translate(635.375,106.375) scale(3.9483333333333)"><rect width="6" height="6"/></g>
<g transform="translate(658.375,106.375) scale(3.9483333333333)"><rect width="6" height="6"/></g>
<g transform="translate(704.375,106.375) scale(3.9483333333333)"><rect width="6" height="6"/></g>
<g transform="translate(405.375,129.375) scale(3.9483333333333)"><rect width="6" height="6"/></g>
<g transform="translate(451.375,129.375) scale(3.9483333333333)"><rect width="6" height="6"/></g>
<g transform="translate(474.375,129.375) scale(3.9483333333333)"><rect width="6" height="6"/></g>
<g transform="translate(566.375,129.375) scale(3.9483333333333)"><rect width="6" height="6"/></g>
<g transform="translate(612.375,129.375) scale(3.9483333333333)"><rect width="6" height="6"/></g>
<g transform="translate(635.375,129.375) scale(3.9483333333333)"><rect width="6" height="6"/></g>
<g transform="translate(704.375,129.375) scale(3.9483333333333)"><rect width="6" height="6"/></g>
<g transform="translate(727.375,129.375) scale(3.9483333333333)"><rect width="6" height="6"/></g>
<g transform="translate(750.375,129.375) scale(3.9483333333333)"><rect width="6" height="6"/></g>
<g transform="translate(290.375,152.375) scale(3.9483333333333)"><rect width="6" height="6"/></g>
<g transform="translate(359.375,152.375) scale(3.9483333333333)"><rect width="6" height="6"/></g>
<g transform="translate(405.375,152.375) scale(3.9483333333333)"><rect width="6" height="6"/></g>
<g transform="translate(451.375,152.375) scale(3.9483333333333)"><rect width="6" height="6"/></g>
<g transform="translate(520.375,152.375) scale(3.9483333333333)"><rect width="6" height="6"/></g>
<g transform="translate(589.375,152.375) scale(3.9483333333333)"><rect width="6" height="6"/></g>
<g transform="translate(612.375,152.375) scale(3.9483333333333)"><rect width="6" height="6"/></g>
<g transform="translate(635.375,152.375) scale(3.9483333333333)"><rect width="6" height="6"/></g>
<g transform="translate(727.375,152.375) scale(3.9483333333333)"><rect width="6" height="6"/></g>
<g transform="translate(290.375,175.375) scale(3.9483333333333)"><rect width="6" height="6"/></g>
<g transform="translate(313.375,175.375) scale(3.9483333333333)"><rect width="6" height="6"/></g>
<g transform="translate(382.375,175.375) scale(3.9483333333333)"><rect width="6" height="6"/></g>
<g transform="translate(451.375,175.375) scale(3.9483333333333)"><rect width="6" height="6"/></g>
<g transform="translate(474.375,175.375) scale(3.9483333333333)"><rect width="6" height="6"/></g>
<g transform="translate(497.375,175.375) scale(3.9483333333333)"><rect width="6" height="6"/></g>
<g transform="translate(520.375,175.375) scale(3.9483333333333)"><rect width="6" height="6"/></g>
<g transform="translate(566.375,175.375) scale(3.9483333333333)"><rect width="6" height="6"/></g>
<g transform="translate(681.375,175.375) scale(3.9483333333333)"><rect width="6" height="6"/></g>
<g transform="translate(704.375,175.375) scale(3.9483333333333)"><rect width="6" height="6"/></g>
<g transform="translate(290.375,198.375) scale(3.9483333333333)"><rect width="6" height="6"/></g>
<g transform="translate(336.375,198.375) scale(3.9483333333333)"><rect width="6" height="6"/></g>
<g transform="translate(359.375,198.375) scale(3.9483333333333)"><rect width="6" height="6"/></g>
<g transform="translate(382.375,198.375) scale(3.9483333333333)"><rect width="6" height="6"/></g>
<g transform="translate(474.375,198.375) scale(3.9483333333333)"><rect width="6" height="6"/></g>
<g transform="translate(497.375,198.375) scale(3.9483333333333)"><rect width="6" height="6"/></g>
<g transform="translate(543.375,198.375) scale(3.9483333333333)"><rect width="6" height="6"/></g>
<g transform="translate(566.375,198.375) scale(3.9483333333333)"><rect width="6" height="6"/></g>
<g transform="translate(589.375,198.375) scale(3.9483333333333)"><rect width="6" height="6"/></g>
<g transform="translate(612.375,198.375) scale(3.9483333333333)"><rect width="6" height="6"/></g>
<g transform="translate(635.375,198.375) scale(3.9483333333333)"><rect width="6" height="6"/></g>
<g transform="translate(681.375,198.375) scale(3.9483333333333)"><rect width="6" height="6"/></g>
<g transform="translate(750.375,198.375) scale(3.9483333333333)"><rect width="6" height="6"/></g>
<g transform="translate(290.375,221.375) scale(3.9483333333333)"><rect width="6" height="6"/></g>
<g transform="translate(313.375,221.375) scale(3.9483333333333)"><rect width="6" height="6"/></g>
<g transform="translate(359.375,221.375) scale(3.9483333333333)"><rect width="6" height="6"/></g>
<g transform="translate(451.375,221.375) scale(3.9483333333333)"><rect width="6" height="6"/></g>
<g transform="translate(474.375,221.375) scale(3.9483333333333)"><rect width="6" height="6"/></g>
<g transform="translate(520.375,221.375) scale(3.9483333333333)"><rect width="6" height="6"/></g>
<g transform="translate(566.375,221.375) scale(3.9483333333333)"><rect width="6" height="6"/></g>
<g transform="translate(612.375,221.375) scale(3.9483333333333)"><rect width="6" height="6"/></g>
<g transform="translate(681.375,221.375) scale(3.9483333333333)"><rect width="6" height="6"/></g>
<g transform="translate(727.375,221.375) scale(3.9483333333333)"><rect width="6" height="6"/></g>
<g transform="translate(750.375,221.375) scale(3.9483333333333)"><rect width="6" height="6"/></g>
<g transform="translate(290.375,244.375) scale(3.9483333333333)"><rect width="6" height="6"/></g>
<g transform="translate(336.375,244.375) scale(3.9483333333333)"><rect width="6" height="6"/></g>
<g transform="translate(382.375,244.375) scale(3.9483333333333)"><rect width="6" height="6"/></g>
<g transform="translate(428.375,244.375) scale(3.9483333333333)"><rect width="6" height="6"/></g>
<g transform="translate(474.375,244.375) scale(3.9483333333333)"><rect width="6" height="6"/></g>
<g transform="translate(520.375,244.375) scale(3.9483333333333)"><rect width="6" height="6"/></g>
<g transform="translate(566.375,244.375) scale(3.9483333333333)"><rect width="6" height="6"/></g>
<g transform="translate(612.375,244.375) scale(3.9483333333333)"><rect width="6" height="6"/></g>
<g transform="translate(658.375,244.375) scale(3.9483333333333)"><rect width="6" height="6"/></g>
<g transform="translate(704.375,244.375) scale(3.9483333333333)"><rect width="6" height="6"/></g>
<g transform="translate(750.375,244.375) scale(3.9483333333333)"><rect width="6" height="6"/></g>
<g transform="translate(290.375,267.375) scale(3.9483333333333)"><rect width="6" height="6"/></g>
<g transform="translate(359.375,267.375) scale(3.9483333333333)"><rect width="6" height="6"/></g>
<g transform="translate(382.375,267.375) scale(3.9483333333333)"><rect width="6" height="6"/></g>
<g transform="translate(566.375,267.375) scale(3.9483333333333)"><rect width="6" height="6"/></g>
<g transform="translate(589.375,267.375) scale(3.9483333333333)"><rect width="6" height="6"/></g>
<g transform="translate(612.375,267.375) scale(3.9483333333333)"><rect width="6" height="6"/></g>
<g transform="translate(635.375,267.375) scale(3.9483333333333)"><rect width="6" height="6"/></g>
<g transform="translate(681.375,267.375) scale(3.9483333333333)"><rect width="6" height="6"/></g>
<g transform="translate(727.375,267.375) scale(3.9483333333333)"><rect width="6" height="6"/></g>
<g transform="translate(750.375,267.375) scale(3.9483333333333)"><rect width="6" height="6"/></g>
<g transform="translate(106.375,290.375) scale(3.9483333333333)"><rect width="6" height="6"/></g>
<g transform="translate(152.375,290.375) scale(3.9483333333333)"><rect width="6" height="6"/></g>
<g transform="translate(175.375,290.375) scale(3.9483333333333)"><rect width="6" height="6"/></g>
<g transform="translate(198.375,290.375) scale(3.9483333333333)"><rect width="6" height="6"/></g>
<g transform="translate(221.375,290.375) scale(3.9483333333333)"><rect width="6" height="6"/></g>
<g transform="translate(244.375,290.375) scale(3.9483333333333)"><rect width="6" height="6"/></g>
<g transform="translate(359.375,290.375) scale(3.9483333333333)"><rect width="6" height="6"/></g>
<g transform="translate(382.375,290.375) scale(3.9483333333333)"><rect width="6" height="6"/></g>
<g transform="translate(451.375,290.375) scale(3.9483333333333)"><rect width="6" height="6"/></g>
<g transform="translate(520.375,290.375) scale(3.9483333333333)"><rect width="6" height="6"/></g>
<g transform="translate(566.375,290.375) scale(3.9483333333333)"><rect width="6" height="6"/></g>
<g transform="translate(635.375,290.375) scale(3.9483333333333)"><rect width="6" height="6"/></g>
<g transform="translate(727.375,290.375) scale(3.9483333333333)"><rect width="6" height="6"/></g>
<g transform="translate(750.375,290.375) scale(3.9483333333333)"><rect width="6" height="6"/></g>
<g transform="translate(796.375,290.375) scale(3.9483333333333)"><rect width="6" height="6"/></g>
<g transform="translate(819.375,290.375) scale(3.9483333333333)"><rect width="6" height="6"/></g>
<g transform="translate(842.375,290.375) scale(3.9483333333333)"><rect width="6" height="6"/></g>
<g transform="translate(865.375,290.375) scale(3.9483333333333)"><rect width="6" height="6"/></g>
<g transform="translate(888.375,290.375) scale(3.9483333333333)"><rect width="6" height="6"/></g>
<g transform="translate(106.375,313.375) scale(3.9483333333333)"><rect width="6" height="6"/></g>
<g transform="translate(152.375,313.375) scale(3.9483333333333)"><rect width="6" height="6"/></g>
<g transform="translate(175.375,313.375) scale(3.9483333333333)"><rect width="6" height="6"/></g>
<g transform="translate(451.375,313.375) scale(3.9483333333333)"><rect width="6" height="6"/></g>
<g transform="translate(474.375,313.375) scale(3.9483333333333)"><rect width="6" height="6"/></g>
<g transform="translate(543.375,313.375) scale(3.9483333333333)"><rect width="6" height="6"/></g>
<g transform="translate(589.375,313.375) scale(3.9483333333333)"><rect width="6" height="6"/></g>
<g transform="translate(612.375,313.375) scale(3.9483333333333)"><rect width="6" height="6"/></g>
<g transform="translate(635.375,313.375) scale(3.9483333333333)"><rect width="6" height="6"/></g>
<g transform="translate(658.375,313.375) scale(3.9483333333333)"><rect width="6" height="6"/></g>
<g transform="translate(704.375,313.375) scale(3.9483333333333)"><rect width="6" height="6"/></g>
<g transform="translate(727.375,313.375) scale(3.9483333333333)"><rect width="6" height="6"/></g>
<g transform="translate(773.375,313.375) scale(3.9483333333333)"><rect width="6" height="6"/></g>
<g transform="translate(888.375,313.375) scale(3.9483333333333)"><rect width="6" height="6"/></g>
<g transform="translate(911.375,313.375) scale(3.9483333333333)"><rect width="6" height="6"/></g>
<g transform="translate(106.375,336.375) scale(3.9483333333333)"><rect width="6" height="6"/></g>
<g transform="translate(152.375,336.375) scale(3.9483333333333)"><rect width="6" height="6"/></g>
<g transform="translate(244.375,336.375) scale(3.9483333333333)"><rect width="6" height="6"/></g>
<g transform="translate(267.375,336.375) scale(3.9483333333333)"><rect width="6" height="6"/></g>
<g transform="translate(313.375,336.375) scale(3.9483333333333)"><rect width="6" height="6"/></g>
<g transform="translate(336.375,336.375) scale(3.9483333333333)"><rect width="6" height="6"/></g>
<g transform="translate(405.375,336.375) scale(3.9483333333333)"><rect width="6" height="6"/></g>
<g transform="translate(428.375,336.375) scale(3.9483333333333)"><rect width="6" height="6"/></g>
<g transform="translate(497.375,336.375) scale(3.9483333333333)"><rect width="6" height="6"/></g>
<g transform="translate(566.375,336.375) scale(3.9483333333333)"><rect width="6" height="6"/></g>
<g transform="translate(658.375,336.375) scale(3.9483333333333)"><rect width="6" height="6"/></g>
<g transform="translate(681.375,336.375) scale(3.9483333333333)"><rect width="6" height="6"/></g>
<g transform="translate(773.375,336.375) scale(3.9483333333333)"><rect width="6" height="6"/></g>
<g transform="translate(865.375,336.375) scale(3.9483333333333)"><rect width="6" height="6"/></g>
<g transform="translate(911.375,336.375) scale(3.9483333333333)"><rect width="6" height="6"/></g>
<g transform="translate(934.375,336.375) scale(3.9483333333333)"><rect width="6" height="6"/></g>
<g transform="translate(106.375,359.375) scale(3.9483333333333)"><rect width="6" height="6"/></g>
<g transform="translate(152.375,359.375) scale(3.9483333333333)"><rect width="6" height="6"/></g>
<g transform="translate(221.375,359.375) scale(3.9483333333333)"><rect width="6" height="6"/></g>
<g transform="translate(267.375,359.375) scale(3.9483333333333)"><rect width="6" height="6"/></g>
<g transform="translate(290.375,359.375) scale(3.9483333333333)"><rect width="6" height="6"/></g>
<g transform="translate(359.375,359.375) scale(3.9483333333333)"><rect width="6" height="6"/></g>
<g transform="translate(474.375,359.375) scale(3.9483333333333)"><rect width="6" height="6"/></g>
<g transform="translate(520.375,359.375) scale(3.9483333333333)"><rect width="6" height="6"/></g>
<g transform="translate(543.375,359.375) scale(3.9483333333333)"><rect width="6" height="6"/></g>
<g transform="translate(589.375,359.375) scale(3.9483333333333)"><rect width="6" height="6"/></g>
<g transform="translate(612.375,359.375) scale(3.9483333333333)"><rect width="6" height="6"/></g>
<g transform="translate(658.375,359.375) scale(3.9483333333333)"><rect width="6" height="6"/></g>
<g transform="translate(750.375,359.375) scale(3.9483333333333)"><rect width="6" height="6"/></g>
<g transform="translate(773.375,359.375) scale(3.9483333333333)"><rect width="6" height="6"/></g>
<g transform="translate(842.375,359.375) scale(3.9483333333333)"><rect width="6" height="6"/></g>
<g transform="translate(934.375,359.375) scale(3.9483333333333)"><rect width="6" height="6"/></g>
<g transform="translate(106.375,382.375) scale(3.9483333333333)"><rect width="6" height="6"/></g>
<g transform="translate(129.375,382.375) scale(3.9483333333333)"><rect width="6" height="6"/></g>
<g transform="translate(175.375,382.375) scale(3.9483333333333)"><rect width="6" height="6"/></g>
<g transform="translate(198.375,382.375) scale(3.9483333333333)"><rect width="6" height="6"/></g>
<g transform="translate(244.375,382.375) scale(3.9483333333333)"><rect width="6" height="6"/></g>
<g transform="translate(290.375,382.375) scale(3.9483333333333)"><rect width="6" height="6"/></g>
<g transform="translate(313.375,382.375) scale(3.9483333333333)"><rect width="6" height="6"/></g>
<g transform="translate(336.375,382.375) scale(3.9483333333333)"><rect width="6" height="6"/></g>
<g transform="translate(382.375,382.375) scale(3.9483333333333)"><rect width="6" height="6"/></g>
<g transform="translate(405.375,382.375) scale(3.9483333333333)"><rect width="6" height="6"/></g>
<g transform="translate(428.375,382.375) scale(3.9483333333333)"><rect width="6" height="6"/></g>
<g transform="translate(497.375,382.375) scale(3.9483333333333)"><rect width="6" height="6"/></g>
<g transform="translate(543.375,382.375) scale(3.9483333333333)"><rect width="6" height="6"/></g>
<g transform="translate(566.375,382.375) scale(3.9483333333333)"><rect width="6" height="6"/></g>
<g transform="translate(589.375,382.375) scale(3.9483333333333)"><rect width="6" height="6"/></g>
<g transform="translate(612.375,382.375) scale(3.9483333333333)"><rect width="6" height="6"/></g>
<g transform="translate(635.375,382.375) scale(3.9483333333333)"><rect width="6" height="6"/></g>
<g transform="translate(658.375,382.375) scale(3.9483333333333)"><rect width="6" height="6"/></g>
<g transform="translate(681.375,382.375) scale(3.9483333333333)"><rect width="6" height="6"/></g>
<g transform="translate(704.375,382.375) scale(3.9483333333333)"><rect width="6" height="6"/></g>
<g transform="translate(727.375,382.375) scale(3.9483333333333)"><rect width="6" height="6"/></g>
<g transform="translate(773.375,382.375) scale(3.9483333333333)"><rect width="6" height="6"/></g>
<g transform="translate(796.375,382.375) scale(3.9483333333333)"><rect width="6" height="6"/></g>
<g transform="translate(842.375,382.375) scale(3.9483333333333)"><rect width="6" height="6"/></g>
<g transform="translate(865.375,382.375) scale(3.9483333333333)"><rect width="6" height="6"/></g>
<g transform="translate(888.375,382.375) scale(3.9483333333333)"><rect width="6" height="6"/></g>
<g transform="translate(911.375,382.375) scale(3.9483333333333)"><rect width="6" height="6"/></g>
<g transform="translate(934.375,382.375) scale(3.9483333333333)"><rect width="6" height="6"/></g>
<g transform="translate(152.375,405.375) scale(3.9483333333333)"><rect width="6" height="6"/></g>
<g transform="translate(175.375,405.375) scale(3.9483333333333)"><rect width="6" height="6"/></g>
<g transform="translate(198.375,405.375) scale(3.9483333333333)"><rect width="6" height="6"/></g>
<g transform="translate(336.375,405.375) scale(3.9483333333333)"><rect width="6" height="6"/></g>
<g transform="translate(359.375,405.375) scale(3.9483333333333)"><rect width="6" height="6"/></g>
<g transform="translate(428.375,405.375) scale(3.9483333333333)"><rect width="6" height="6"/></g>
<g transform="translate(451.375,405.375) scale(3.9483333333333)"><rect width="6" height="6"/></g>
<g transform="translate(474.375,405.375) scale(3.9483333333333)"><rect width="6" height="6"/></g>
<g transform="translate(497.375,405.375) scale(3.9483333333333)"><rect width="6" height="6"/></g>
<g transform="translate(520.375,405.375) scale(3.9483333333333)"><rect width="6" height="6"/></g>
<g transform="translate(543.375,405.375) scale(3.9483333333333)"><rect width="6" height="6"/></g>
<g transform="translate(566.375,405.375) scale(3.9483333333333)"><rect width="6" height="6"/></g>
<g transform="translate(635.375,405.375) scale(3.9483333333333)"><rect width="6" height="6"/></g>
<g transform="translate(658.375,405.375) scale(3.9483333333333)"><rect width="6" height="6"/></g>
<g transform="translate(681.375,405.375) scale(3.9483333333333)"><rect width="6" height="6"/></g>
<g transform="translate(750.375,405.375) scale(3.9483333333333)"><rect width="6" height="6"/></g>
<g transform="translate(773.375,405.375) scale(3.9483333333333)"><rect width="6" height="6"/></g>
<g transform="translate(819.375,405.375) scale(3.9483333333333)"><rect width="6" height="6"/></g>
<g transform="translate(175.375,428.375) scale(3.9483333333333)"><rect width="6" height="6"/></g>
<g transform="translate(244.375,428.375) scale(3.9483333333333)"><rect width="6" height="6"/></g>
<g transform="translate(267.375,428.375) scale(3.9483333333333)"><rect width="6" height="6"/></g>
<g transform="translate(290.375,428.375) scale(3.9483333333333)"><rect width="6" height="6"/></g>
<g transform="translate(313.375,428.375) scale(3.9483333333333)"><rect width="6" height="6"/></g>
<g transform="translate(405.375,428.375) scale(3.9483333333333)"><rect width="6" height="6"/></g>
<g transform="translate(451.375,428.375) scale(3.9483333333333)"><rect width="6" height="6"/></g>
<g transform="translate(474.375,428.375) scale(3.9483333333333)"><rect width="6" height="6"/></g>
<g transform="translate(497.375,428.375) scale(3.9483333333333)"><rect width="6" height="6"/></g>
<g transform="translate(520.375,428.375) scale(3.9483333333333)"><rect width="6" height="6"/></g>
<g transform="translate(566.375,428.375) scale(3.9483333333333)"><rect width="6" height="6"/></g>
<g transform="translate(704.375,428.375) scale(3.9483333333333)"><rect width="6" height="6"/></g>
<g transform="translate(727.375,428.375) scale(3.9483333333333)"><rect width="6" height="6"/></g>
<g transform="translate(750.375,428.375) scale(3.9483333333333)"><rect width="6" height="6"/></g>
<g transform="translate(796.375,428.375) scale(3.9483333333333)"><rect width="6" height="6"/></g>
<g transform="translate(819.375,428.375) scale(3.9483333333333)"><rect width="6" height="6"/></g>
<g transform="translate(842.375,428.375) scale(3.9483333333333)"><rect width="6" height="6"/></g>
<g transform="translate(865.375,428.375) scale(3.9483333333333)"><rect width="6" height="6"/></g>
<g transform="translate(911.375,428.375) scale(3.9483333333333)"><rect width="6" height="6"/></g>
<g transform="translate(934.375,428.375) scale(3.9483333333333)"><rect width="6" height="6"/></g>
<g transform="translate(106.375,451.375) scale(3.9483333333333)"><rect width="6" height="6"/></g>
<g transform="translate(198.375,451.375) scale(3.9483333333333)"><rect width="6" height="6"/></g>
<g transform="translate(221.375,451.375) scale(3.9483333333333)"><rect width="6" height="6"/></g>
<g transform="translate(267.375,451.375) scale(3.9483333333333)"><rect width="6" height="6"/></g>
<g transform="translate(313.375,451.375) scale(3.9483333333333)"><rect width="6" height="6"/></g>
<g transform="translate(336.375,451.375) scale(3.9483333333333)"><rect width="6" height="6"/></g>
<g transform="translate(359.375,451.375) scale(3.9483333333333)"><rect width="6" height="6"/></g>
<g transform="translate(405.375,451.375) scale(3.9483333333333)"><rect width="6" height="6"/></g>
<g transform="translate(428.375,451.375) scale(3.9483333333333)"><rect width="6" height="6"/></g>
<g transform="translate(497.375,451.375) scale(3.9483333333333)"><rect width="6" height="6"/></g>
<g transform="translate(543.375,451.375) scale(3.9483333333333)"><rect width="6" height="6"/></g>
<g transform="translate(566.375,451.375) scale(3.9483333333333)"><rect width="6" height="6"/></g>
<g transform="translate(589.375,451.375) scale(3.9483333333333)"><rect width="6" height="6"/></g>
<g transform="translate(635.375,451.375) scale(3.9483333333333)"><rect width="6" height="6"/></g>
<g transform="translate(681.375,451.375) scale(3.9483333333333)"><rect width="6" height="6"/></g>
<g transform="translate(727.375,451.375) scale(3.9483333333333)"><rect width="6" height="6"/></g>
<g transform="translate(750.375,451.375) scale(3.9483333333333)"><rect width="6" height="6"/></g>
<g transform="translate(796.375,451.375) scale(3.9483333333333)"><rect width="6" height="6"/></g>
<g transform="translate(819.375,451.375) scale(3.9483333333333)"><rect width="6" height="6"/></g>
<g transform="translate(842.375,451.375) scale(3.9483333333333)"><rect width="6" height="6"/></g>
<g transform="translate(934.375,451.375) scale(3.9483333333333)"><rect width="6" height="6"/></g>
<g transform="translate(175.375,474.375) scale(3.9483333333333)"><rect width="6" height="6"/></g>
<g transform="translate(244.375,474.375) scale(3.9483333333333)"><rect width="6" height="6"/></g>
<g transform="translate(428.375,474.375) scale(3.9483333333333)"><rect width="6" height="6"/></g>
<g transform="translate(451.375,474.375) scale(3.9483333333333)"><rect width="6" height="6"/></g>
<g transform="translate(474.375,474.375) scale(3.9483333333333)"><rect width="6" height="6"/></g>
<g transform="translate(497.375,474.375) scale(3.9483333333333)"><rect width="6" height="6"/></g>
<g transform="translate(520.375,474.375) scale(3.9483333333333)"><rect width="6" height="6"/></g>
<g transform="translate(566.375,474.375) scale(3.9483333333333)"><rect width="6" height="6"/></g>
<g transform="translate(635.375,474.375) scale(3.9483333333333)"><rect width="6" height="6"/></g>
<g transform="translate(681.375,474.375) scale(3.9483333333333)"><rect width="6" height="6"/></g>
<g transform="translate(727.375,474.375) scale(3.9483333333333)"><rect width="6" height="6"/></g>
<g transform="translate(750.375,474.375) scale(3.9483333333333)"><rect width="6" height="6"/></g>
<g transform="translate(796.375,474.375) scale(3.9483333333333)"><rect width="6" height="6"/></g>
<g transform="translate(888.375,474.375) scale(3.9483333333333)"><rect width="6" height="6"/></g>
<g transform="translate(934.375,474.375) scale(3.9483333333333)"><rect width="6" height="6"/></g>
<g transform="translate(106.375,497.375) scale(3.9483333333333)"><rect width="6" height="6"/></g>
<g transform="translate(129.375,497.375) scale(3.9483333333333)"><rect width="6" height="6"/></g>
<g transform="translate(152.375,497.375) scale(3.9483333333333)"><rect width="6" height="6"/></g>
<g transform="translate(175.375,497.375) scale(3.9483333333333)"><rect width="6" height="6"/></g>
<g transform="translate(198.375,497.375) scale(3.9483333333333)"><rect width="6" height="6"/></g>
<g transform="translate(221.375,497.375) scale(3.9483333333333)"><rect width="6" height="6"/></g>
<g transform="translate(267.375,497.375) scale(3.9483333333333)"><rect width="6" height="6"/></g>
<g transform="translate(290.375,497.375) scale(3.9483333333333)"><rect width="6" height="6"/></g>
<g transform="translate(428.375,497.375) scale(3.9483333333333)"><rect width="6" height="6"/></g>
<g transform="translate(451.375,497.375) scale(3.9483333333333)"><rect width="6" height="6"/></g>
<g transform="translate(543.375,497.375) scale(3.9483333333333)"><rect width="6" height="6"/></g>
<g transform="translate(612.375,497.375) scale(3.9483333333333)"><rect width="6" height="6"/></g>
<g transform="translate(658.375,497.375) scale(3.9483333333333)"><rect width="6" height="6"/></g>
<g transform="translate(704.375,497.375) scale(3.9483333333333)"><rect width="6" height="6"/></g>
<g transform="translate(796.375,497.375) scale(3.9483333333333)"><rect width="6" height="6"/></g>
<g transform="translate(842.375,497.375) scale(3.9483333333333)"><rect width="6" height="6"/></g>
<g transform="translate(865.375,497.375) scale(3.9483333333333)"><rect width="6" height="6"/></g>
<g transform="translate(911.375,497.375) scale(3.9483333333333)"><rect width="6" height="6"/></g>
<g transform="translate(129.375,520.375) scale(3.9483333333333)"><rect width="6" height="6"/></g>
<g transform="translate(152.375,520.375) scale(3.9483333333333)"><rect width="6" height="6"/></g>
<g transform="translate(244.375,520.375) scale(3.9483333333333)"><rect width="6" height="6"/></g>
<g transform="translate(313.375,520.375) scale(3.9483333333333)"><rect width="6" height="6"/></g>
<g transform="translate(382.375,520.375) scale(3.9483333333333)"><rect width="6" height="6"/></g>
<g transform="translate(405.375,520.375) scale(3.9483333333333)"><rect width="6" height="6"/></g>
<g transform="translate(428.375,520.375) scale(3.9483333333333)"><rect width="6" height="6"/></g>
<g transform="translate(451.375,520.375) scale(3.9483333333333)"><rect width="6" height="6"/></g>
<g transform="translate(474.375,520.375) scale(3.9483333333333)"><rect width="6" height="6"/></g>
<g transform="translate(566.375,520.375) scale(3.9483333333333)"><rect width="6" height="6"/></g>
<g transform="translate(658.375,520.375) scale(3.9483333333333)"><rect width="6" height="6"/></g>
<g transform="translate(750.375,520.375) scale(3.9483333333333)"><rect width="6" height="6"/></g>
<g transform="translate(796.375,520.375) scale(3.9483333333333)"><rect width="6" height="6"/></g>
<g transform="translate(842.375,520.375) scale(3.9483333333333)"><rect width="6" height="6"/></g>
<g transform="translate(888.375,520.375) scale(3.9483333333333)"><rect width="6" height="6"/></g>
<g transform="translate(911.375,520.375) scale(3.9483333333333)"><rect width="6" height="6"/></g>
<g transform="translate(934.375,520.375) scale(3.9483333333333)"><rect width="6" height="6"/></g>
<g transform="translate(129.375,543.375) scale(3.9483333333333)"><rect width="6" height="6"/></g>
<g transform="translate(152.375,543.375) scale(3.9483333333333)"><rect width="6" height="6"/></g>
<g transform="translate(336.375,543.375) scale(3.9483333333333)"><rect width="6" height="6"/></g>
<g transform="translate(382.375,543.375) scale(3.9483333333333)"><rect width="6" height="6"/></g>
<g transform="translate(428.375,543.375) scale(3.9483333333333)"><rect width="6" height="6"/></g>
<g transform="translate(451.375,543.375) scale(3.9483333333333)"><rect width="6" height="6"/></g>
<g transform="translate(520.375,543.375) scale(3.9483333333333)"><rect width="6" height="6"/></g>
<g transform="translate(589.375,543.375) scale(3.9483333333333)"><rect width="6" height="6"/></g>
<g transform="translate(658.375,543.375) scale(3.9483333333333)"><rect width="6" height="6"/></g>
<g transform="translate(704.375,543.375) scale(3.9483333333333)"><rect width="6" height="6"/></g>
<g transform="translate(727.375,543.375) scale(3.9483333333333)"><rect width="6" height="6"/></g>
<g transform="translate(796.375,543.375) scale(3.9483333333333)"><rect width="6" height="6"/></g>
<g transform="translate(842.375,543.375) scale(3.9483333333333)"><rect width="6" height="6"/></g>
<g transform="translate(865.375,543.375) scale(3.9483333333333)"><rect width="6" height="6"/></g>
<g transform="translate(934.375,543.375) scale(3.9483333333333)"><rect width="6" height="6"/></g>
<g transform="translate(106.375,566.375) scale(3.9483333333333)"><rect width="6" height="6"/></g>
<g transform="translate(175.375,566.375) scale(3.9483333333333)"><rect width="6" height="6"/></g>
<g transform="translate(221.375,566.375) scale(3.9483333333333)"><rect width="6" height="6"/></g>
<g transform="translate(244.375,566.375) scale(3.9483333333333)"><rect width="6" height="6"/></g>
<g transform="translate(313.375,566.375) scale(3.9483333333333)"><rect width="6" height="6"/></g>
<g transform="translate(405.375,566.375) scale(3.9483333333333)"><rect width="6" height="6"/></g>
<g transform="translate(451.375,566.375) scale(3.9483333333333)"><rect width="6" height="6"/></g>
<g transform="translate(474.375,566.375) scale(3.9483333333333)"><rect width="6" height="6"/></g>
<g transform="translate(497.375,566.375) scale(3.9483333333333)"><rect width="6" height="6"/></g>
<g transform="translate(520.375,566.375) scale(3.9483333333333)"><rect width="6" height="6"/></g>
<g transform="translate(566.375,566.375) scale(3.9483333333333)"><rect width="6" height="6"/></g>
<g transform="translate(612.375,566.375) scale(3.9483333333333)"><rect width="6" height="6"/></g>
<g transform="translate(635.375,566.375) scale(3.9483333333333)"><rect width="6" height="6"/></g>
<g transform="translate(658.375,566.375) scale(3.9483333333333)"><rect width="6" height="6"/></g>
<g transform="translate(681.375,566.375) scale(3.9483333333333)"><rect width="6" height="6"/></g>
<g transform="translate(704.375,566.375) scale(3.9483333333333)"><rect width="6" height="6"/></g>
<g transform="translate(727.375,566.375) scale(3.9483333333333)"><rect width="6" height="6"/></g>
<g transform="translate(773.375,566.375) scale(3.9483333333333)"><rect width="6" height="6"/></g>
<g transform="translate(796.375,566.375) scale(3.9483333333333)"><rect width="6" height="6"/></g>
<g transform="translate(842.375,566.375) scale(3.9483333333333)"><rect width="6" height="6"/></g>
<g transform="translate(865.375,566.375) scale(3.9483333333333)"><rect width="6" height="6"/></g>
<g transform="translate(129.375,589.375) scale(3.9483333333333)"><rect width="6" height="6"/></g>
<g transform="translate(267.375,589.375) scale(3.9483333333333)"><rect width="6" height="6"/></g>
<g transform="translate(336.375,589.375) scale(3.9483333333333)"><rect width="6" height="6"/></g>
<g transform="translate(359.375,589.375) scale(3.9483333333333)"><rect width="6" height="6"/></g>
<g transform="translate(382.375,589.375) scale(3.9483333333333)"><rect width="6" height="6"/></g>
<g transform="translate(405.375,589.375) scale(3.9483333333333)"><rect width="6" height="6"/></g>
<g transform="translate(428.375,589.375) scale(3.9483333333333)"><rect width="6" height="6"/></g>
<g transform="translate(474.375,589.375) scale(3.9483333333333)"><rect width="6" height="6"/></g>
<g transform="translate(497.375,589.375) scale(3.9483333333333)"><rect width="6" height="6"/></g>
<g transform="translate(543.375,589.375) scale(3.9483333333333)"><rect width="6" height="6"/></g>
<g transform="translate(635.375,589.375) scale(3.9483333333333)"><rect width="6" height="6"/></g>
<g transform="translate(750.375,589.375) scale(3.9483333333333)"><rect width="6" height="6"/></g>
<g transform="translate(865.375,589.375) scale(3.9483333333333)"><rect width="6" height="6"/></g>
<g transform="translate(106.375,612.375) scale(3.9483333333333)"><rect width="6" height="6"/></g>
<g transform="translate(152.375,612.375) scale(3.9483333333333)"><rect width="6" height="6"/></g>
<g transform="translate(175.375,612.375) scale(3.9483333333333)"><rect width="6" height="6"/></g>
<g transform="translate(244.375,612.375) scale(3.9483333333333)"><rect width="6" height="6"/></g>
<g transform="translate(290.375,612.375) scale(3.9483333333333)"><rect width="6" height="6"/></g>
<g transform="translate(336.375,612.375) scale(3.9483333333333)"><rect width="6" height="6"/></g>
<g transform="translate(359.375,612.375) scale(3.9483333333333)"><rect width="6" height="6"/></g>
<g transform="translate(382.375,612.375) scale(3.9483333333333)"><rect width="6" height="6"/></g>
<g transform="translate(428.375,612.375) scale(3.9483333333333)"><rect width="6" height="6"/></g>
<g transform="translate(451.375,612.375) scale(3.9483333333333)"><rect width="6" height="6"/></g>
<g transform="translate(474.375,612.375) scale(3.9483333333333)"><rect width="6" height="6"/></g>
<g transform="translate(497.375,612.375) scale(3.9483333333333)"><rect width="6" height="6"/></g>
<g transform="translate(520.375,612.375) scale(3.9483333333333)"><rect width="6" height="6"/></g>
<g transform="translate(566.375,612.375) scale(3.9483333333333)"><rect width="6" height="6"/></g>
<g transform="translate(589.375,612.375) scale(3.9483333333333)"><rect width="6" height="6"/></g>
<g transform="translate(612.375,612.375) scale(3.9483333333333)"><rect width="6" height="6"/></g>
<g transform="translate(704.375,612.375) scale(3.9483333333333)"><rect width="6" height="6"/></g>
<g transform="translate(727.375,612.375) scale(3.9483333333333)"><rect width="6" height="6"/></g>
<g transform="translate(773.375,612.375) scale(3.9483333333333)"><rect width="6" height="6"/></g>
<g transform="translate(819.375,612.375) scale(3.9483333333333)"><rect width="6" height="6"/></g>
<g transform="translate(842.375,612.375) scale(3.9483333333333)"><rect width="6" height="6"/></g>
<g transform="translate(865.375,612.375) scale(3.9483333333333)"><rect width="6" height="6"/></g>
<g transform="translate(934.375,612.375) scale(3.9483333333333)"><rect width="6" height="6"/></g>
<g transform="translate(106.375,635.375) scale(3.9483333333333)"><rect width="6" height="6"/></g>
<g transform="translate(129.375,635.375) scale(3.9483333333333)"><rect width="6" height="6"/></g>
<g transform="translate(152.375,635.375) scale(3.9483333333333)"><rect width="6" height="6"/></g>
<g transform="translate(221.375,635.375) scale(3.9483333333333)"><rect width="6" height="6"/></g>
<g transform="translate(267.375,635.375) scale(3.9483333333333)"><rect width="6" height="6"/></g>
<g transform="translate(290.375,635.375) scale(3.9483333333333)"><rect width="6" height="6"/></g>
<g transform="translate(313.375,635.375) scale(3.9483333333333)"><rect width="6" height="6"/></g>
<g transform="translate(336.375,635.375) scale(3.9483333333333)"><rect width="6" height="6"/></g>
<g transform="translate(382.375,635.375) scale(3.9483333333333)"><rect width="6" height="6"/></g>
<g transform="translate(405.375,635.375) scale(3.9483333333333)"><rect width="6" height="6"/></g>
<g transform="translate(451.375,635.375) scale(3.9483333333333)"><rect width="6" height="6"/></g>
<g transform="translate(474.375,635.375) scale(3.9483333333333)"><rect width="6" height="6"/></g>
<g transform="translate(497.375,635.375) scale(3.9483333333333)"><rect width="6" height="6"/></g>
<g transform="translate(520.375,635.375) scale(3.9483333333333)"><rect width="6" height="6"/></g>
<g transform="translate(658.375,635.375) scale(3.9483333333333)"><rect width="6" height="6"/></g>
<g transform="translate(750.375,635.375) scale(3.9483333333333)"><rect width="6" height="6"/></g>
<g transform="translate(773.375,635.375) scale(3.9483333333333)"><rect width="6" height="6"/></g>
<g transform="translate(819.375,635.375) scale(3.9483333333333)"><rect width="6" height="6"/></g>
<g transform="translate(842.375,635.375) scale(3.9483333333333)"><rect width="6" height="6"/></g>
<g transform="translate(152.375,658.375) scale(3.9483333333333)"><rect width="6" height="6"/></g>
<g transform="translate(175.375,658.375) scale(3.9483333333333)"><rect width="6" height="6"/></g>
<g transform="translate(221.375,658.375) scale(3.9483333333333)"><rect width="6" height="6"/></g>
<g transform="translate(244.375,658.375) scale(3.9483333333333)"><rect width="6" height="6"/></g>
<g transform="translate(290.375,658.375) scale(3.9483333333333)"><rect width="6" height="6"/></g>
<g transform="translate(451.375,658.375) scale(3.9483333333333)"><rect width="6" height="6"/></g>
<g transform="translate(520.375,658.375) scale(3.9483333333333)"><rect width="6" height="6"/></g>
<g transform="translate(543.375,658.375) scale(3.9483333333333)"><rect width="6" height="6"/></g>
<g transform="translate(566.375,658.375) scale(3.9483333333333)"><rect width="6" height="6"/></g>
<g transform="translate(589.375,658.375) scale(3.9483333333333)"><rect width="6" height="6"/></g>
<g transform="translate(635.375,658.375) scale(3.9483333333333)"><rect width="6" height="6"/></g>
<g transform="translate(681.375,658.375) scale(3.9483333333333)"><rect width="6" height="6"/></g>
<g transform="translate(727.375,658.375) scale(3.9483333333333)"><rect width="6" height="6"/></g>
<g transform="translate(750.375,658.375) scale(3.9483333333333)"><rect width="6" height="6"/></g>
<g transform="translate(773.375,658.375) scale(3.9483333333333)"><rect width="6" height="6"/></g>
<g transform="translate(796.375,658.375) scale(3.9483333333333)"><rect width="6" height="6"/></g>
<g transform="translate(819.375,658.375) scale(3.9483333333333)"><rect width="6" height="6"/></g>
<g transform="translate(888.375,658.375) scale(3.9483333333333)"><rect width="6" height="6"/></g>
<g transform="translate(911.375,658.375) scale(3.9483333333333)"><rect width="6" height="6"/></g>
<g transform="translate(934.375,658.375) scale(3.9483333333333)"><rect width="6" height="6"/></g>
<g transform="translate(106.375,681.375) scale(3.9483333333333)"><rect width="6" height="6"/></g>
<g transform="translate(129.375,681.375) scale(3.9483333333333)"><rect width="6" height="6"/></g>
<g transform="translate(152.375,681.375) scale(3.9483333333333)"><rect width="6" height="6"/></g>
<g transform="translate(175.375,681.375) scale(3.9483333333333)"><rect width="6" height="6"/></g>
<g transform="translate(267.375,681.375) scale(3.9483333333333)"><rect width="6" height="6"/></g>
<g transform="translate(290.375,681.375) scale(3.9483333333333)"><rect width="6" height="6"/></g>
<g transform="translate(313.375,681.375) scale(3.9483333333333)"><rect width="6" height="6"/></g>
<g transform="translate(382.375,681.375) scale(3.9483333333333)"><rect width="6" height="6"/></g>
<g transform="translate(405.375,681.375) scale(3.9483333333333)"><rect width="6" height="6"/></g>
<g transform="translate(428.375,681.375) scale(3.9483333333333)"><rect width="6" height="6"/></g>
<g transform="translate(451.375,681.375) scale(3.9483333333333)"><rect width="6" height="6"/></g>
<g transform="translate(474.375,681.375) scale(3.9483333333333)"><rect width="6" height="6"/></g>
<g transform="translate(497.375,681.375) scale(3.9483333333333)"><rect width="6" height="6"/></g>
<g transform="translate(543.375,681.375) scale(3.9483333333333)"><rect width="6" height="6"/></g>
<g transform="translate(612.375,681.375) scale(3.9483333333333)"><rect width="6" height="6"/></g>
<g transform="translate(658.375,681.375) scale(3.9483333333333)"><rect width="6" height="6"/></g>
<g transform="translate(704.375,681.375) scale(3.9483333333333)"><rect width="6" height="6"/></g>
<g transform="translate(773.375,681.375) scale(3.9483333333333)"><rect width="6" height="6"/></g>
<g transform="translate(796.375,681.375) scale(3.9483333333333)"><rect width="6" height="6"/></g>
<g transform="translate(842.375,681.375) scale(3.9483333333333)"><rect width="6" height="6"/></g>
<g transform="translate(865.375,681.375) scale(3.9483333333333)"><rect width="6" height="6"/></g>
<g transform="translate(888.375,681.375) scale(3.9483333333333)"><rect width="6" height="6"/></g>
<g transform="translate(106.375,704.375) scale(3.9483333333333)"><rect width="6" height="6"/></g>
<g transform="translate(175.375,704.375) scale(3.9483333333333)"><rect width="6" height="6"/></g>
<g transform="translate(221.375,704.375) scale(3.9483333333333)"><rect width="6" height="6"/></g>
<g transform="translate(244.375,704.375) scale(3.9483333333333)"><rect width="6" height="6"/></g>
<g transform="translate(290.375,704.375) scale(3.9483333333333)"><rect width="6" height="6"/></g>
<g transform="translate(313.375,704.375) scale(3.9483333333333)"><rect width="6" height="6"/></g>
<g transform="translate(359.375,704.375) scale(3.9483333333333)"><rect width="6" height="6"/></g>
<g transform="translate(428.375,704.375) scale(3.9483333333333)"><rect width="6" height="6"/></g>
<g transform="translate(520.375,704.375) scale(3.9483333333333)"><rect width="6" height="6"/></g>
<g transform="translate(612.375,704.375) scale(3.9483333333333)"><rect width="6" height="6"/></g>
<g transform="translate(658.375,704.375) scale(3.9483333333333)"><rect width="6" height="6"/></g>
<g transform="translate(681.375,704.375) scale(3.9483333333333)"><rect width="6" height="6"/></g>
<g transform="translate(773.375,704.375) scale(3.9483333333333)"><rect width="6" height="6"/></g>
<g transform="translate(796.375,704.375) scale(3.9483333333333)"><rect width="6" height="6"/></g>
<g transform="translate(819.375,704.375) scale(3.9483333333333)"><rect width="6" height="6"/></g>
<g transform="translate(842.375,704.375) scale(3.9483333333333)"><rect width="6" height="6"/></g>
<g transform="translate(888.375,704.375) scale(3.9483333333333)"><rect width="6" height="6"/></g>
<g transform="translate(911.375,704.375) scale(3.9483333333333)"><rect width="6" height="6"/></g>
<g transform="translate(934.375,704.375) scale(3.9483333333333)"><rect width="6" height="6"/></g>
<g transform="translate(106.375,727.375) scale(3.9483333333333)"><rect width="6" height="6"/></g>
<g transform="translate(152.375,727.375) scale(3.9483333333333)"><rect width="6" height="6"/></g>
<g transform="translate(175.375,727.375) scale(3.9483333333333)"><rect width="6" height="6"/></g>
<g transform="translate(221.375,727.375) scale(3.9483333333333)"><rect width="6" height="6"/></g>
<g transform="translate(267.375,727.375) scale(3.9483333333333)"><rect width="6" height="6"/></g>
<g transform="translate(313.375,727.375) scale(3.9483333333333)"><rect width="6" height="6"/></g>
<g transform="translate(336.375,727.375) scale(3.9483333333333)"><rect width="6" height="6"/></g>
<g transform="translate(474.375,727.375) scale(3.9483333333333)"><rect width="6" height="6"/></g>
<g transform="translate(589.375,727.375) scale(3.9483333333333)"><rect width="6" height="6"/></g>
<g transform="translate(612.375,727.375) scale(3.9483333333333)"><rect width="6" height="6"/></g>
<g transform="translate(635.375,727.375) scale(3.9483333333333)"><rect width="6" height="6"/></g>
<g transform="translate(658.375,727.375) scale(3.9483333333333)"><rect width="6" height="6"/></g>
<g transform="translate(704.375,727.375) scale(3.9483333333333)"><rect width="6" height="6"/></g>
<g transform="translate(727.375,727.375) scale(3.9483333333333)"><rect width="6" height="6"/></g>
<g transform="translate(750.375,727.375) scale(3.9483333333333)"><rect width="6" height="6"/></g>
<g transform="translate(773.375,727.375) scale(3.9483333333333)"><rect width="6" height="6"/></g>
<g transform="translate(796.375,727.375) scale(3.9483333333333)"><rect width="6" height="6"/></g>
<g transform="translate(819.375,727.375) scale(3.9483333333333)"><rect width="6" height="6"/></g>
<g transform="translate(842.375,727.375) scale(3.9483333333333)"><rect width="6" height="6"/></g>
<g transform="translate(911.375,727.375) scale(3.9483333333333)"><rect width="6" height="6"/></g>
<g transform="translate(106.375,750.375) scale(3.9483333333333)"><rect width="6" height="6"/></g>
<g transform="translate(152.375,750.375) scale(3.9483333333333)"><rect width="6" height="6"/></g>
<g transform="translate(244.375,750.375) scale(3.9483333333333)"><rect width="6" height="6"/></g>
<g transform="translate(290.375,750.375) scale(3.9483333333333)"><rect width="6" height="6"/></g>
<g transform="translate(313.375,750.375) scale(3.9483333333333)"><rect width="6" height="6"/></g>
<g transform="translate(336.375,750.375) scale(3.9483333333333)"><rect width="6" height="6"/></g>
<g transform="translate(359.375,750.375) scale(3.9483333333333)"><rect width="6" height="6"/></g>
<g transform="translate(382.375,750.375) scale(3.9483333333333)"><rect width="6" height="6"/></g>
<g transform="translate(405.375,750.375) scale(3.9483333333333)"><rect width="6" height="6"/></g>
<g transform="translate(474.375,750.375) scale(3.9483333333333)"><rect width="6" height="6"/></g>
<g transform="translate(497.375,750.375) scale(3.9483333333333)"><rect width="6" height="6"/></g>
<g transform="translate(543.375,750.375) scale(3.9483333333333)"><rect width="6" height="6"/></g>
<g transform="translate(612.375,750.375) scale(3.9483333333333)"><rect width="6" height="6"/></g>
<g transform="translate(635.375,750.375) scale(3.9483333333333)"><rect width="6" height="6"/></g>
<g transform="translate(658.375,750.375) scale(3.9483333333333)"><rect width="6" height="6"/></g>
<g transform="translate(681.375,750.375) scale(3.9483333333333)"><rect width="6" height="6"/></g>
<g transform="translate(704.375,750.375) scale(3.9483333333333)"><rect width="6" height="6"/></g>
<g transform="translate(750.375,750.375) scale(3.9483333333333)"><rect width="6" height="6"/></g>
<g transform="translate(773.375,750.375) scale(3.9483333333333)"><rect width="6" height="6"/></g>
<g transform="translate(796.375,750.375) scale(3.9483333333333)"><rect width="6" height="6"/></g>
<g transform="translate(819.375,750.375) scale(3.9483333333333)"><rect width="6" height="6"/></g>
<g transform="translate(842.375,750.375) scale(3.9483333333333)"><rect width="6" height="6"/></g>
<g transform="translate(865.375,750.375) scale(3.9483333333333)"><rect width="6" height="6"/></g>
<g transform="translate(290.375,773.375) scale(3.9483333333333)"><rect width="6" height="6"/></g>
<g transform="translate(313.375,773.375) scale(3.9483333333333)"><rect width="6" height="6"/></g>
<g transform="translate(359.375,773.375) scale(3.9483333333333)"><rect width="6" height="6"/></g>
<g transform="translate(405.375,773.375) scale(3.9483333333333)"><rect width="6" height="6"/></g>
<g transform="translate(428.375,773.375) scale(3.9483333333333)"><rect width="6" height="6"/></g>
<g transform="translate(451.375,773.375) scale(3.9483333333333)"><rect width="6" height="6"/></g>
<g transform="translate(474.375,773.375) scale(3.9483333333333)"><rect width="6" height="6"/></g>
<g transform="translate(497.375,773.375) scale(3.9483333333333)"><rect width="6" height="6"/></g>
<g transform="translate(520.375,773.375) scale(3.9483333333333)"><rect width="6" height="6"/></g>
<g transform="translate(543.375,773.375) scale(3.9483333333333)"><rect width="6" height="6"/></g>
<g transform="translate(566.375,773.375) scale(3.9483333333333)"><rect width="6" height="6"/></g>
<g transform="translate(612.375,773.375) scale(3.9483333333333)"><rect width="6" height="6"/></g>
<g transform="translate(635.375,773.375) scale(3.9483333333333)"><rect width="6" height="6"/></g>
<g transform="translate(727.375,773.375) scale(3.9483333333333)"><rect width="6" height="6"/></g>
<g transform="translate(750.375,773.375) scale(3.9483333333333)"><rect width="6" height="6"/></g>
<g transform="translate(842.375,773.375) scale(3.9483333333333)"><rect width="6" height="6"/></g>
<g transform="translate(865.375,773.375) scale(3.9483333333333)"><rect width="6" height="6"/></g>
<g transform="translate(911.375,773.375) scale(3.9483333333333)"><rect width="6" height="6"/></g>
<g transform="translate(313.375,796.375) scale(3.9483333333333)"><rect width="6" height="6"/></g>
<g transform="translate(336.375,796.375) scale(3.9483333333333)"><rect width="6" height="6"/></g>
<g transform="translate(359.375,796.375) scale(3.9483333333333)"><rect width="6" height="6"/></g>
<g transform="translate(382.375,796.375) scale(3.9483333333333)"><rect width="6" height="6"/></g>
<g transform="translate(451.375,796.375) scale(3.9483333333333)"><rect width="6" height="6"/></g>
<g transform="translate(474.375,796.375) scale(3.9483333333333)"><rect width="6" height="6"/></g>
<g transform="translate(497.375,796.375) scale(3.9483333333333)"><rect width="6" height="6"/></g>
<g transform="translate(520.375,796.375) scale(3.9483333333333)"><rect width="6" height="6"/></g>
<g transform="translate(566.375,796.375) scale(3.9483333333333)"><rect width="6" height="6"/></g>
<g transform="translate(589.375,796.375) scale(3.9483333333333)"><rect width="6" height="6"/></g>
<g transform="translate(658.375,796.375) scale(3.9483333333333)"><rect width="6" height="6"/></g>
<g transform="translate(750.375,796.375) scale(3.9483333333333)"><rect width="6" height="6"/></g>
<g transform="translate(796.375,796.375) scale(3.9483333333333)"><rect width="6" height="6"/></g>
<g transform="translate(842.375,796.375) scale(3.9483333333333)"><rect width="6" height="6"/></g>
<g transform="translate(888.375,796.375) scale(3.9483333333333)"><rect width="6" height="6"/></g>
<g transform="translate(911.375,796.375) scale(3.9483333333333)"><rect width="6" height="6"/></g>
<g transform="translate(934.375,796.375) scale(3.9483333333333)"><rect width="6" height="6"/></g>
<g transform="translate(290.375,819.375) scale(3.9483333333333)"><rect width="6" height="6"/></g>
<g transform="translate(336.375,819.375) scale(3.9483333333333)"><rect width="6" height="6"/></g>
<g transform="translate(359.375,819.375) scale(3.9483333333333)"><rect width="6" height="6"/></g>
<g transform="translate(382.375,819.375) scale(3.9483333333333)"><rect width="6" height="6"/></g>
<g transform="translate(451.375,819.375) scale(3.9483333333333)"><rect width="6" height="6"/></g>
<g transform="translate(474.375,819.375) scale(3.9483333333333)"><rect width="6" height="6"/></g>
<g transform="translate(497.375,819.375) scale(3.9483333333333)"><rect width="6" height="6"/></g>
<g transform="translate(520.375,819.375) scale(3.9483333333333)"><rect width="6" height="6"/></g>
<g transform="translate(543.375,819.375) scale(3.9483333333333)"><rect width="6" height="6"/></g>
<g transform="translate(566.375,819.375) scale(3.9483333333333)"><rect width="6" height="6"/></g>
<g transform="translate(589.375,819.375) scale(3.9483333333333)"><rect width="6" height="6"/></g>
<g transform="translate(612.375,819.375) scale(3.9483333333333)"><rect width="6" height="6"/></g>
<g transform="translate(635.375,819.375) scale(3.9483333333333)"><rect width="6" height="6"/></g>
<g transform="translate(681.375,819.375) scale(3.9483333333333)"><rect width="6" height="6"/></g>
<g transform="translate(704.375,819.375) scale(3.9483333333333)"><rect width="6" height="6"/></g>
<g transform="translate(750.375,819.375) scale(3.9483333333333)"><rect width="6" height="6"/></g>
<g transform="translate(842.375,819.375) scale(3.9483333333333)"><rect width="6" height="6"/></g>
<g transform="translate(865.375,819.375) scale(3.9483333333333)"><rect width="6" height="6"/></g>
<g transform="translate(911.375,819.375) scale(3.9483333333333)"><rect width="6" height="6"/></g>
<g transform="translate(290.375,842.375) scale(3.9483333333333)"><rect width="6" height="6"/></g>
<g transform="translate(382.375,842.375) scale(3.9483333333333)"><rect width="6" height="6"/></g>
<g transform="translate(428.375,842.375) scale(3.9483333333333)"><rect width="6" height="6"/></g>
<g transform="translate(451.375,842.375) scale(3.9483333333333)"><rect width="6" height="6"/></g>
<g transform="translate(520.375,842.375) scale(3.9483333333333)"><rect width="6" height="6"/></g>
<g transform="translate(566.375,842.375) scale(3.9483333333333)"><rect width="6" height="6"/></g>
<g transform="translate(635.375,842.375) scale(3.9483333333333)"><rect width="6" height="6"/></g>
<g transform="translate(681.375,842.375) scale(3.9483333333333)"><rect width="6" height="6"/></g>
<g transform="translate(727.375,842.375) scale(3.9483333333333)"><rect width="6" height="6"/></g>
<g transform="translate(750.375,842.375) scale(3.9483333333333)"><rect width="6" height="6"/></g>
<g transform="translate(773.375,842.375) scale(3.9483333333333)"><rect width="6" height="6"/></g>
<g transform="translate(796.375,842.375) scale(3.9483333333333)"><rect width="6" height="6"/></g>
<g transform="translate(819.375,842.375) scale(3.9483333333333)"><rect width="6" height="6"/></g>
<g transform="translate(842.375,842.375) scale(3.9483333333333)"><rect width="6" height="6"/></g>
<g transform="translate(888.375,842.375) scale(3.9483333333333)"><rect width="6" height="6"/></g>
<g transform="translate(934.375,842.375) scale(3.9483333333333)"><rect width="6" height="6"/></g>
<g transform="translate(290.375,865.375) scale(3.9483333333333)"><rect width="6" height="6"/></g>
<g transform="translate(336.375,865.375) scale(3.9483333333333)"><rect width="6" height="6"/></g>
<g transform="translate(451.375,865.375) scale(3.9483333333333)"><rect width="6" height="6"/></g>
<g transform="translate(497.375,865.375) scale(3.9483333333333)"><rect width="6" height="6"/></g>
<g transform="translate(520.375,865.375) scale(3.9483333333333)"><rect width="6" height="6"/></g>
<g transform="translate(589.375,865.375) scale(3.9483333333333)"><rect width="6" height="6"/></g>
<g transform="translate(612.375,865.375) scale(3.9483333333333)"><rect width="6" height="6"/></g>
<g transform="translate(635.375,865.375) scale(3.9483333333333)"><rect width="6" height="6"/></g>
<g transform="translate(658.375,865.375) scale(3.9483333333333)"><rect width="6" height="6"/></g>
<g transform="translate(681.375,865.375) scale(3.9483333333333)"><rect width="6" height="6"/></g>
<g transform="translate(704.375,865.375) scale(3.9483333333333)"><rect width="6" height="6"/></g>
<g transform="translate(727.375,865.375) scale(3.9483333333333)"><rect width="6" height="6"/></g>
<g transform="translate(750.375,865.375) scale(3.9483333333333)"><rect width="6" height="6"/></g>
<g transform="translate(773.375,865.375) scale(3.9483333333333)"><rect width="6" height="6"/></g>
<g transform="translate(796.375,865.375) scale(3.9483333333333)"><rect width="6" height="6"/></g>
<g transform="translate(842.375,865.375) scale(3.9483333333333)"><rect width="6" height="6"/></g>
<g transform="translate(865.375,865.375) scale(3.9483333333333)"><rect width="6" height="6"/></g>
<g transform="translate(290.375,888.375) scale(3.9483333333333)"><rect width="6" height="6"/></g>
<g transform="translate(359.375,888.375) scale(3.9483333333333)"><rect width="6" height="6"/></g>
<g transform="translate(405.375,888.375) scale(3.9483333333333)"><rect width="6" height="6"/></g>
<g transform="translate(428.375,888.375) scale(3.9483333333333)"><rect width="6" height="6"/></g>
<g transform="translate(451.375,888.375) scale(3.9483333333333)"><rect width="6" height="6"/></g>
<g transform="translate(497.375,888.375) scale(3.9483333333333)"><rect width="6" height="6"/></g>
<g transform="translate(520.375,888.375) scale(3.9483333333333)"><rect width="6" height="6"/></g>
<g transform="translate(543.375,888.375) scale(3.9483333333333)"><rect width="6" height="6"/></g>
<g transform="translate(681.375,888.375) scale(3.9483333333333)"><rect width="6" height="6"/></g>
<g transform="translate(750.375,888.375) scale(3.9483333333333)"><rect width="6" height="6"/></g>
<g transform="translate(934.375,888.375) scale(3.9483333333333)"><rect width="6" height="6"/></g>
<g transform="translate(336.375,911.375) scale(3.9483333333333)"><rect width="6" height="6"/></g>
<g transform="translate(359.375,911.375) scale(3.9483333333333)"><rect width="6" height="6"/></g>
<g transform="translate(405.375,911.375) scale(3.9483333333333)"><rect width="6" height="6"/></g>
<g transform="translate(451.375,911.375) scale(3.9483333333333)"><rect width="6" height="6"/></g>
<g transform="translate(589.375,911.375) scale(3.9483333333333)"><rect width="6" height="6"/></g>
<g transform="translate(635.375,911.375) scale(3.9483333333333)"><rect width="6" height="6"/></g>
<g transform="translate(704.375,911.375) scale(3.9483333333333)"><rect width="6" height="6"/></g>
<g transform="translate(727.375,911.375) scale(3.9483333333333)"><rect width="6" height="6"/></g>
<g transform="translate(842.375,911.375) scale(3.9483333333333)"><rect width="6" height="6"/></g>
<g transform="translate(934.375,911.375) scale(3.9483333333333)"><rect width="6" height="6"/></g>
<g transform="translate(290.375,934.375) scale(3.9483333333333)"><rect width="6" height="6"/></g>
<g transform="translate(313.375,934.375) scale(3.9483333333333)"><rect width="6" height="6"/></g>
<g transform="translate(359.375,934.375) scale(3.9483333333333)"><rect width="6" height="6"/></g>
<g transform="translate(382.375,934.375) scale(3.9483333333333)"><rect width="6" height="6"/></g>
<g transform="translate(451.375,934.375) scale(3.9483333333333)"><rect width="6" height="6"/></g>
<g transform="translate(497.375,934.375) scale(3.9483333333333)"><rect width="6" height="6"/></g>
<g transform="translate(589.375,934.375) scale(3.9483333333333)"><rect width="6" height="6"/></g>
<g transform="translate(612.375,934.375) scale(3.9483333333333)"><rect width="6" height="6"/></g>
<g transform="translate(658.375,934.375) scale(3.9483333333333)"><rect width="6" height="6"/></g>
<g transform="translate(681.375,934.375) scale(3.9483333333333)"><rect width="6" height="6"/></g>
<g transform="translate(727.375,934.375) scale(3.9483333333333)"><rect width="6" height="6"/></g>
<g transform="translate(842.375,934.375) scale(3.9483333333333)"><rect width="6" height="6"/></g>
<g transform="translate(888.375,934.375) scale(3.9483333333333)"><rect width="6" height="6"/></g>
<g transform="translate(911.375,934.375) scale(3.9483333333333)"><rect width="6" height="6"/></g>
<g transform="translate(934.375,934.375) scale(3.9483333333333)"><rect width="6" height="6"/></g>
<g transform="translate(106.375,106.375)"><g transform="scale(11.5)"><path d="M0,0v14h14V0H0z M12,12H2V2h10V12z"/></g></g>
<g transform="translate(796.375,106.375)"><g transform="scale(11.5)"><path d="M0,0v14h14V0H0z M12,12H2V2h10V12z"/></g></g>
<g transform="translate(106.375,796.375)"><g transform="scale(11.5)"><path d="M0,0v14h14V0H0z M12,12H2V2h10V12z"/></g></g>
<g transform="translate(152.375,152.375)"><g transform="scale(11.5)"><rect width="6" height="6"/></g></g>
<g transform="translate(842.375,152.375)"><g transform="scale(11.5)"><rect width="6" height="6"/></g></g>
<g transform="translate(152.375,842.375)"><g transform="scale(11.5)"><rect width="6" height="6"/></g></g>
</g><g transform="translate(106.375,7.4344562739612) scale(1.354404724899)"><path fill="#FFFFFF" d="M3.3203125,93.994140625q0-14.404296875,8.0078125-21.337890625q6.689453125-5.76171875,16.30859375-5.76171875q10.693359375,0,17.48046875,7.0068359375t6.787109375,19.3603515625q0,10.009765625-3.0029296875,15.7470703125t-8.740234375,8.9111328125t-12.5244140625,3.173828125q-10.888671875,0-17.6025390625-6.982421875t-6.7138671875-20.1171875z M12.353515625,93.994140625q0,9.9609375,4.345703125,14.9169921875t10.9375,4.9560546875q6.54296875,0,10.888671875-4.98046875t4.345703125-15.185546875q0-9.619140625-4.3701171875-14.5751953125t-10.8642578125-4.9560546875q-6.591796875,0-10.9375,4.931640625t-4.345703125,14.892578125z M62.20703125,139.794921875l0-71.728515625l8.0078125,0l0,6.73828125q2.83203125-3.955078125,6.396484375-5.9326171875t8.642578125-1.9775390625q6.640625,0,11.71875,3.41796875t7.666015625,9.6435546875t2.587890625,13.6474609375q0,7.958984375-2.8564453125,14.3310546875t-8.30078125,9.765625t-11.4501953125,3.3935546875q-4.39453125,0-7.8857421875-1.85546875t-5.7373046875-4.6875l0,25.244140625l-8.7890625,0z M70.166015625,94.287109375q0,10.009765625,4.052734375,14.794921875t9.814453125,4.78515625q5.859375,0,10.0341796875-4.9560546875t4.1748046875-15.3564453125q0-9.912109375-4.0771484375-14.84375t-9.7412109375-4.931640625q-5.615234375,0-9.9365234375,5.2490234375t-4.3212890625,15.2587890625z M153.3203125,103.22265625l9.08203125,1.123046875q-2.1484375,7.958984375-7.958984375,12.353515625t-14.84375,4.39453125q-11.376953125,0-18.0419921875-7.0068359375t-6.6650390625-19.6533203125q0-13.0859375,6.73828125-20.3125t17.48046875-7.2265625q10.400390625,0,16.9921875,7.080078125t6.591796875,19.921875q0,0.78125-0.048828125,2.34375l-38.671875,0q0.48828125,8.544921875,4.833984375,13.0859375t10.83984375,4.541015625q4.833984375,0,8.251953125-2.5390625t5.419921875-8.10546875z M124.462890625,89.013671875l28.955078125,0q-0.5859375-6.54296875-3.3203125-9.814453125q-4.19921875-5.078125-10.888671875-5.078125q-6.0546875,0-10.1806640625,4.052734375t-4.5654296875,10.83984375z M173.4375,119.921875l0-51.85546875l7.91015625,0l0,7.373046875q5.712890625-8.544921875,16.50390625-8.544921875q4.6875,0,8.6181640625,1.6845703125t5.8837890625,4.4189453125t2.734375,6.494140625q0.48828125,2.44140625,0.48828125,8.544921875l0,31.884765625l-8.7890625,0l0-31.54296875q0-5.37109375-1.025390625-8.0322265625t-3.6376953125-4.248046875t-6.1279296875-1.5869140625q-5.615234375,0-9.6923828125,3.564453125t-4.0771484375,13.525390625l0,28.3203125l-8.7890625,0z M231.15234375,119.921875l0-45.01953125l-7.763671875,0l0-6.8359375l7.763671875,0l0-5.517578125q0-5.224609375,0.927734375-7.763671875q1.26953125-3.41796875,4.4677734375-5.5419921875t8.9599609375-2.1240234375q3.7109375,0,8.203125,0.87890625l-1.318359375,7.666015625q-2.734375-0.48828125-5.17578125-0.48828125q-4.00390625,0-5.6640625,1.708984375t-1.66015625,6.396484375l0,4.78515625l10.107421875,0l0,6.8359375l-10.107421875,0l0,45.01953125l-8.740234375,0z M292.333984375,103.22265625l9.08203125,1.123046875q-2.1484375,7.958984375-7.958984375,12.353515625t-14.84375,4.39453125q-11.376953125,0-18.0419921875-7.0068359375t-6.6650390625-19.6533203125q0-13.0859375,6.73828125-20.3125t17.48046875-7.2265625q10.400390625,0,16.9921875,7.080078125t6.591796875,19.921875q0,0.78125-0.048828125,2.34375l-38.671875,0q0.48828125,8.544921875,4.833984375,13.0859375t10.83984375,4.541015625q4.833984375,0,8.251953125-2.5390625t5.419921875-8.10546875z M263.4765625,89.013671875l28.955078125,0q-0.5859375-6.54296875-3.3203125-9.814453125q-4.19921875-5.078125-10.888671875-5.078125q-6.0546875,0-10.1806640625,4.052734375t-4.5654296875,10.83984375z M347.94921875,103.22265625l9.08203125,1.123046875q-2.1484375,7.958984375-7.958984375,12.353515625t-14.84375,4.39453125q-11.376953125,0-18.0419921875-7.0068359375t-6.6650390625-19.6533203125q0-13.0859375,6.73828125-20.3125t17.48046875-7.2265625q10.400390625,0,16.9921875,7.080078125t6.591796875,19.921875q0,0.78125-0.048828125,2.34375l-38.671875,0q0.48828125,8.544921875,4.833984375,13.0859375t10.83984375,4.541015625q4.833984375,0,8.251953125-2.5390625t5.419921875-8.10546875z M319.091796875,89.013671875l28.955078125,0q-0.5859375-6.54296875-3.3203125-9.814453125q-4.19921875-5.078125-10.888671875-5.078125q-6.0546875,0-10.1806640625,4.052734375t-4.5654296875,10.83984375z M401.708984375,119.921875l0-6.54296875q-4.931640625,7.71484375-14.501953125,7.71484375q-6.201171875,0-11.4013671875-3.41796875t-8.056640625-9.5458984375t-2.8564453125-14.0869140625q0-7.763671875,2.587890625-14.0869140625t7.763671875-9.6923828125t11.572265625-3.369140625q4.6875,0,8.349609375,1.9775390625t5.95703125,5.1513671875l0-25.68359375l8.740234375,0l0,71.58203125l-8.154296875,0z M373.92578125,94.04296875q0,9.9609375,4.19921875,14.892578125t9.912109375,4.931640625q5.76171875,0,9.7900390625-4.7119140625t4.0283203125-14.3798828125q0-10.64453125-4.1015625-15.625t-10.107421875-4.98046875q-5.859375,0-9.7900390625,4.78515625t-3.9306640625,15.087890625z M431.787109375,119.921875l-8.154296875,0l0-71.58203125l8.7890625,0l0,25.537109375q5.56640625-6.982421875,14.208984375-6.982421875q4.78515625,0,9.0576171875,1.9287109375t7.03125,5.419921875t4.3212890625,8.4228515625t1.5625,10.546875q0,13.330078125-6.591796875,20.60546875t-15.8203125,7.275390625q-9.1796875,0-14.404296875-7.666015625l0,6.494140625z M431.689453125,93.603515625q0,9.326171875,2.5390625,13.4765625q4.150390625,6.787109375,11.23046875,6.787109375q5.76171875,0,9.9609375-5.0048828125t4.19921875-14.9169921875q0-10.15625-4.0283203125-14.990234375t-9.7412109375-4.833984375q-5.76171875,0-9.9609375,5.0048828125t-4.19921875,14.4775390625z M513.134765625,113.525390625q-4.8828125,4.150390625-9.3994140625,5.859375t-9.6923828125,1.708984375q-8.544921875,0-13.134765625-4.1748046875t-4.58984375-10.6689453125q0-3.80859375,1.7333984375-6.9580078125t4.541015625-5.0537109375t6.3232421875-2.880859375q2.587890625-0.68359375,7.8125-1.318359375q10.64453125-1.26953125,15.673828125-3.02734375q0.048828125-1.806640625,0.048828125-2.294921875q0-5.37109375-2.490234375-7.568359375q-3.369140625-2.978515625-10.009765625-2.978515625q-6.201171875,0-9.1552734375,2.1728515625t-4.3701171875,7.6904296875l-8.59375-1.171875q1.171875-5.517578125,3.857421875-8.9111328125t7.763671875-5.224609375t11.767578125-1.8310546875q6.640625,0,10.791015625,1.5625t6.103515625,3.9306640625t2.734375,5.9814453125q0.439453125,2.24609375,0.439453125,8.10546875l0,11.71875q0,12.255859375,0.5615234375,15.5029296875t2.2216796875,6.2255859375l-9.1796875,0q-1.3671875-2.734375-1.7578125-6.396484375z M512.40234375,93.896484375q-4.78515625,1.953125-14.35546875,3.3203125q-5.419921875,0.78125-7.666015625,1.7578125t-3.466796875,2.8564453125t-1.220703125,4.1748046875q0,3.515625,2.6611328125,5.859375t7.7880859375,2.34375q5.078125,0,9.033203125-2.2216796875t5.810546875-6.0791015625q1.416015625-2.978515625,1.416015625-8.7890625l0-3.22265625z M568.75,100.927734375l8.642578125,1.123046875q-1.416015625,8.935546875-7.2509765625,13.9892578125t-14.3310546875,5.0537109375q-10.64453125,0-17.1142578125-6.9580078125t-6.4697265625-19.9462890625q0-8.3984375,2.783203125-14.697265625t8.4716796875-9.4482421875t12.3779296875-3.1494140625q8.447265625,0,13.818359375,4.2724609375t6.884765625,12.1337890625l-8.544921875,1.318359375q-1.220703125-5.224609375-4.3212890625-7.861328125t-7.4951171875-2.63671875q-6.640625,0-10.791015625,4.7607421875t-4.150390625,15.0634765625q0,10.44921875,4.00390625,15.185546875t10.44921875,4.736328125q5.17578125,0,8.642578125-3.173828125t4.39453125-9.765625z M584.9609375,119.921875l0-71.58203125l8.7890625,0l0,40.8203125l20.80078125-21.09375l11.376953125,0l-19.82421875,19.23828125l21.826171875,32.6171875l-10.83984375,0l-17.138671875-26.513671875l-6.201171875,5.95703125l0,20.556640625l-8.7890625,0z"/></g></svg>
